<svg xmlns="http://www.w3.org/2000/svg" width="1200" height="630" viewBox="0 0 1200 630">
  <defs>
    <linearGradient id="bg" x1="0" y1="0" x2="1" y2="1"><stop stop-color="#2a2339"/><stop offset="1" stop-color="#463660"/></linearGradient>
    <linearGradient id="photo" x1="0" y1="0" x2="1" y2="0"><stop stop-color="#2a2339" stop-opacity=".98"/><stop offset=".6" stop-color="#2a2339" stop-opacity=".2"/><stop offset="1" stop-color="#2a2339" stop-opacity="0"/></linearGradient>
  </defs>
  <rect width="1200" height="630" fill="url(#bg)"/>
  <rect x="760" y="0" width="440" height="630" fill="#eae5ee" opacity=".12"/>
  <g opacity=".18" fill="none" stroke="#c0b6e8"><circle cx="1010" cy="315" r="240" stroke-width="2"/><circle cx="1010" cy="315" r="175"/><circle cx="1010" cy="315" r="110"/></g>
  <g transform="translate(820 205) rotate(-14)"><rect width="260" height="190" rx="12" fill="#faf8fc" stroke="#c8bdd4" stroke-width="5"/><path d="M65 0v190M130 0v190M195 0v190" stroke="#c8bdd4" stroke-width="5"/><path d="M34 0h48v112H34zm65 0h48v112H99zm65 0h48v112h-48z" fill="#343045"/></g>
  <rect width="900" height="630" fill="url(#photo)"/>
  <text x="82" y="94" fill="#bcaef1" font-family="Arial, sans-serif" font-size="18" letter-spacing="4">CYPRUS · 2027</text>
  <text x="82" y="215" fill="#f8f5fb" font-family="Arial, sans-serif" font-size="76" font-weight="700" letter-spacing="-3">RAMI</text>
  <text x="82" y="292" fill="#f8f5fb" font-family="Arial, sans-serif" font-size="76" font-weight="700" letter-spacing="-3">SARIEDDINE</text>
  <rect x="85" y="342" width="44" height="4" fill="#bd7964"/>
  <text x="82" y="405" fill="#e4def0" font-family="Arial, sans-serif" font-size="34" letter-spacing="1">PHILIP GLASS AT 90</text>
  <text x="82" y="458" fill="#bdb1d2" font-family="Arial, sans-serif" font-size="20" letter-spacing="2">FIVE PIANO RECITALS · CYPRUS</text>
  <text x="82" y="560" fill="#bd7964" font-family="Arial, sans-serif" font-size="16" letter-spacing="3">G·90  /  CONCEPT PREVIEW</text>
</svg>
